<svg width="134" height="38" viewBox="0 0 134 38" fill="none" xmlns="http://www.w3.org/2000/svg">
<rect width="134" height="38" rx="6" fill="black"/>
<path d="M26.7973 19.3003C26.8081 18.4657 27.0298 17.6473 27.4418 16.9213C27.8538 16.1954 28.4428 15.5854 29.1539 15.1483C28.7021 14.5031 28.1062 13.9722 27.4134 13.5976C26.7205 13.2231 25.9499 13.0152 25.1627 12.9906C23.4835 12.8143 21.8555 13.9954 20.9998 13.9954C20.1275 13.9954 18.81 13.0081 17.3913 13.0373C16.4736 13.0669 15.5793 13.3338 14.7954 13.8118C14.0115 14.2899 13.3649 14.9629 12.9184 15.7651C10.9844 19.1136 12.427 24.0346 14.2796 26.7412C15.2065 28.0666 16.2898 29.547 17.7072 29.4945C19.0943 29.437 19.6123 28.61 21.2866 28.61C22.9454 28.61 23.4314 29.4945 24.8776 29.4611C26.366 29.437 27.3038 28.1299 28.1981 26.792C28.8641 25.8476 29.3766 24.8039 29.7166 23.6995C28.8518 23.3338 28.1139 22.7216 27.5948 21.9393C27.0757 21.157 26.7983 20.2392 26.7973 19.3003Z" fill="white"/>
<path d="M24.0656 11.2113C24.8772 10.2371 25.277 8.98494 25.1802 7.7207C23.9403 7.85092 22.7951 8.44348 21.9726 9.38031C21.5704 9.83798 21.2624 10.3704 21.0662 10.9472C20.87 11.524 20.7893 12.1337 20.8289 12.7417C21.449 12.7481 22.0625 12.6137 22.6232 12.3486C23.1838 12.0835 23.6771 11.6946 24.0656 11.2113Z" fill="white"/>
<path d="M47.3307 26.1397H42.5973L41.4606 29.4961H39.4557L43.9391 17.0781H46.0221L50.5055 29.4961H48.4664L47.3307 26.1397ZM43.0875 24.5908H46.8395L44.9899 19.1436H44.9381L43.0875 24.5908Z" fill="white"/>
<path d="M60.1881 24.9695C60.1881 27.7829 58.6823 29.5905 56.4098 29.5905C55.8342 29.6207 55.2617 29.4881 54.7579 29.2079C54.2541 28.9278 53.8394 28.5114 53.5612 28.0065H53.5182V32.4909H51.6598V20.4421H53.4586V21.948H53.4928C53.7838 21.4455 54.2055 21.0313 54.7131 20.7495C55.2208 20.4676 55.7953 20.3287 56.3756 20.3474C58.6735 20.3474 60.1881 22.1638 60.1881 24.9695ZM58.278 24.9695C58.278 23.1365 57.3307 21.9314 55.8854 21.9314C54.4655 21.9314 53.5104 23.1618 53.5104 24.9695C53.5104 26.7937 54.4655 28.0154 55.8854 28.0154C57.3307 28.0154 58.278 26.8191 58.278 24.9695Z" fill="white"/>
<path d="M70.153 24.9694C70.153 27.7829 68.6471 29.5905 66.3747 29.5905C65.799 29.6206 65.2265 29.488 64.7227 29.2079C64.2189 28.9278 63.8042 28.5114 63.526 28.0065H63.483V32.4909H61.6246V20.4421H63.4235V21.948H63.4576C63.7486 21.4455 64.1703 21.0313 64.678 20.7495C65.1856 20.4676 65.7601 20.3287 66.3405 20.3474C68.6383 20.3474 70.153 22.1638 70.153 24.9694ZM68.2428 24.9694C68.2428 23.1364 67.2956 21.9314 65.8502 21.9314C64.4303 21.9314 63.4752 23.1618 63.4752 24.9694C63.4752 26.7937 64.4303 28.0153 65.8502 28.0153C67.2956 28.0153 68.2428 26.8191 68.2428 24.9694H68.2428Z" fill="white"/>
<path d="M76.7389 26.0362C76.8766 27.2676 78.0729 28.0762 79.7077 28.0762C81.2741 28.0762 82.401 27.2676 82.401 26.1572C82.401 25.1934 81.7213 24.6162 80.112 24.2207L78.5026 23.833C76.2223 23.2822 75.1637 22.2158 75.1637 20.4854C75.1637 18.3428 77.0309 16.8711 79.6823 16.8711C82.3063 16.8711 84.1051 18.3428 84.1657 20.4854H82.2897C82.1774 19.2461 81.153 18.4981 79.6559 18.4981C78.1588 18.4981 77.1344 19.2549 77.1344 20.3565C77.1344 21.2344 77.7887 21.751 79.3893 22.1465L80.7574 22.4824C83.3053 23.0849 84.3639 24.1084 84.3639 25.9248C84.3639 28.248 82.5133 29.7031 79.5699 29.7031C76.816 29.7031 74.9567 28.2822 74.8365 26.0361L76.7389 26.0362Z" fill="white"/>
<path d="M88.3746 18.3008V20.4434H90.0963V21.915H88.3746V26.9062C88.3746 27.6816 88.7194 28.043 89.4762 28.043C89.6806 28.0394 89.8846 28.0251 90.0875 28V29.4629C89.7472 29.5264 89.4014 29.5552 89.0553 29.5488C87.2223 29.5488 86.5074 28.8603 86.5074 27.1045V21.915H85.191V20.4434H86.5074V18.3008H88.3746Z" fill="white"/>
<path d="M91.0934 24.9707C91.0934 22.1221 92.7711 20.332 95.3873 20.332C98.0123 20.332 99.6823 22.122 99.6823 24.9707C99.6823 27.8272 98.0211 29.6094 95.3873 29.6094C92.7545 29.6094 91.0934 27.8271 91.0934 24.9707ZM97.7887 24.9707C97.7887 23.0166 96.8932 21.8633 95.3873 21.8633C93.8815 21.8633 92.9869 23.0254 92.9869 24.9707C92.9869 26.9326 93.8815 28.0772 95.3873 28.0772C96.8932 28.0772 97.7887 26.9326 97.7887 24.9707H97.7887Z" fill="white"/>
<path d="M101.214 20.442H102.987V21.983H103.03C103.15 21.5017 103.432 21.0764 103.828 20.7785C104.225 20.4806 104.712 20.3284 105.208 20.3473C105.422 20.3465 105.635 20.3698 105.844 20.4166V22.1549C105.574 22.0723 105.292 22.0343 105.009 22.0426C104.739 22.0316 104.47 22.0792 104.22 22.1821C103.971 22.285 103.746 22.4408 103.562 22.6386C103.378 22.8365 103.239 23.0719 103.155 23.3286C103.07 23.5852 103.042 23.8571 103.073 24.1256V29.4957H101.214L101.214 20.442Z" fill="white"/>
<path d="M114.413 26.8379C114.163 28.4814 112.562 29.6094 110.514 29.6094C107.88 29.6094 106.246 27.8447 106.246 25.0137C106.246 22.1738 107.889 20.332 110.436 20.332C112.941 20.332 114.516 22.0527 114.516 24.7978V25.4346H108.122V25.5469C108.092 25.8801 108.134 26.2157 108.244 26.5316C108.354 26.8474 108.53 27.1362 108.761 27.3787C108.991 27.6213 109.27 27.8121 109.58 27.9384C109.89 28.0647 110.223 28.1236 110.557 28.1113C110.996 28.1525 111.437 28.0508 111.814 27.8213C112.191 27.5919 112.483 27.247 112.648 26.8379L114.413 26.8379ZM108.13 24.1357H112.657C112.674 23.8361 112.628 23.5363 112.523 23.2551C112.419 22.9739 112.257 22.7174 112.049 22.5016C111.84 22.2858 111.589 22.1155 111.312 22.0013C111.034 21.8871 110.736 21.8314 110.436 21.8379C110.134 21.8361 109.834 21.8942 109.553 22.009C109.273 22.1237 109.019 22.2928 108.805 22.5064C108.59 22.72 108.42 22.974 108.305 23.2537C108.189 23.5333 108.13 23.8331 108.13 24.1357V24.1357Z" fill="white"/>
<path d="M47.7879 5.85938V12.1994H48.6979V14.8794H47.8379V12.9994H42.9279V14.8794H42.0679V12.1994H42.6179C42.8579 11.786 43.0845 11.3227 43.2979 10.8094C43.5179 10.296 43.7112 9.75938 43.8779 9.19938C44.0445 8.63271 44.1812 8.06604 44.2879 7.49938C44.3945 6.93271 44.4612 6.38604 44.4879 5.85938H47.7879ZM45.2779 6.66938C45.2512 7.05604 45.1845 7.49271 45.0779 7.97937C44.9779 8.46604 44.8479 8.96604 44.6879 9.47937C44.5345 9.98604 44.3612 10.476 44.1679 10.9494C43.9812 11.4227 43.7812 11.8394 43.5679 12.1994H46.8979V6.66938H45.2779Z" fill="white"/>
<path d="M54.4319 10.3094C54.4319 11.196 54.2053 11.8827 53.7519 12.3694C53.3053 12.856 52.6986 13.0994 51.9319 13.0994C51.4586 13.0994 51.0353 12.9927 50.6619 12.7794C50.2953 12.5594 50.0053 12.2427 49.7919 11.8294C49.5786 11.4094 49.4719 10.9027 49.4719 10.3094C49.4719 9.42271 49.6953 8.73938 50.1419 8.25938C50.5886 7.77938 51.1953 7.53938 51.9619 7.53938C52.4486 7.53938 52.8753 7.64938 53.2419 7.86938C53.6153 8.08271 53.9053 8.39604 54.1119 8.80937C54.3253 9.21604 54.4319 9.71604 54.4319 10.3094ZM50.3819 10.3094C50.3819 10.9427 50.5053 11.446 50.7519 11.8194C51.0053 12.186 51.4053 12.3694 51.9519 12.3694C52.4919 12.3694 52.8886 12.186 53.1419 11.8194C53.3953 11.446 53.5219 10.9427 53.5219 10.3094C53.5219 9.67604 53.3953 9.17937 53.1419 8.81938C52.8886 8.45937 52.4886 8.27938 51.9419 8.27938C51.3953 8.27938 50.9986 8.45937 50.7519 8.81938C50.5053 9.17937 50.3819 9.67604 50.3819 10.3094Z" fill="white"/>
<path d="M57.9766 13.0994C57.5033 13.0994 57.08 13.0027 56.7066 12.8094C56.34 12.616 56.05 12.316 55.8366 11.9094C55.63 11.5027 55.5266 10.9827 55.5266 10.3494C55.5266 9.68938 55.6366 9.15271 55.8566 8.73938C56.0766 8.32604 56.3733 8.02271 56.7466 7.82938C57.1266 7.63604 57.5566 7.53938 58.0366 7.53938C58.31 7.53938 58.5733 7.56938 58.8266 7.62938C59.08 7.68271 59.2866 7.74938 59.4466 7.82938L59.1766 8.55937C59.0166 8.49937 58.83 8.44271 58.6166 8.38938C58.4033 8.33604 58.2033 8.30938 58.0166 8.30938C56.9633 8.30938 56.4366 8.98604 56.4366 10.3394C56.4366 10.986 56.5633 11.4827 56.8166 11.8294C57.0766 12.1694 57.46 12.3394 57.9666 12.3394C58.26 12.3394 58.5166 12.3094 58.7366 12.2494C58.9633 12.1894 59.17 12.116 59.3566 12.0294V12.8094C59.1766 12.9027 58.9766 12.9727 58.7566 13.0194C58.5433 13.0727 58.2833 13.0994 57.9766 13.0994Z" fill="white"/>
<path d="M64.3313 8.37938H62.5813V12.9994H61.7113V8.37938H59.9813V7.63938H64.3313V8.37938Z" fill="white"/>
<path d="M64.5472 7.63938H65.4872L66.6472 10.6894C66.7472 10.956 66.8372 11.2127 66.9172 11.4594C66.9972 11.6994 67.0572 11.9294 67.0972 12.1494H67.1372C67.1772 11.9827 67.2405 11.766 67.3272 11.4994C67.4138 11.226 67.5038 10.9527 67.5972 10.6794L68.6872 7.63938H69.6372L67.3272 13.7394C67.1405 14.246 66.8972 14.6494 66.5972 14.9494C66.3038 15.2494 65.8972 15.3994 65.3772 15.3994C65.2172 15.3994 65.0772 15.3894 64.9572 15.3694C64.8372 15.356 64.7338 15.3394 64.6472 15.3194V14.6194C64.7205 14.6327 64.8072 14.646 64.9072 14.6594C65.0138 14.6727 65.1238 14.6794 65.2372 14.6794C65.5438 14.6794 65.7905 14.5927 65.9772 14.4194C66.1705 14.246 66.3205 14.016 66.4272 13.7294L66.7072 13.0194L64.5472 7.63938Z" fill="white"/>
<path d="M75.0148 7.63938V12.9994H74.1348V8.38938H71.3648V12.9994H70.4848V7.63938H75.0148Z" fill="white"/>
<path d="M77.6051 7.63938V9.86938H80.5151V7.63938H81.3951V12.9994H80.5151V10.6094H77.6051V12.9994H76.7251V7.63938H77.6051Z" fill="white"/>
<path d="M87.7522 10.3094C87.7522 11.196 87.5256 11.8827 87.0722 12.3694C86.6256 12.856 86.0189 13.0994 85.2522 13.0994C84.7789 13.0994 84.3556 12.9927 83.9822 12.7794C83.6156 12.5594 83.3256 12.2427 83.1122 11.8294C82.8989 11.4094 82.7922 10.9027 82.7922 10.3094C82.7922 9.42271 83.0156 8.73938 83.4622 8.25938C83.9089 7.77938 84.5156 7.53938 85.2822 7.53938C85.7689 7.53938 86.1956 7.64938 86.5622 7.86938C86.9356 8.08271 87.2256 8.39604 87.4322 8.80937C87.6456 9.21604 87.7522 9.71604 87.7522 10.3094ZM83.7022 10.3094C83.7022 10.9427 83.8256 11.446 84.0722 11.8194C84.3256 12.186 84.7256 12.3694 85.2722 12.3694C85.8122 12.3694 86.2089 12.186 86.4622 11.8194C86.7156 11.446 86.8422 10.9427 86.8422 10.3094C86.8422 9.67604 86.7156 9.17937 86.4622 8.81938C86.2089 8.45937 85.8089 8.27938 85.2622 8.27938C84.7156 8.27938 84.3189 8.45937 84.0722 8.81938C83.8256 9.17937 83.7022 9.67604 83.7022 10.3094Z" fill="white"/>
<path d="M95.3905 8.98938C95.3905 9.32271 95.2905 9.58271 95.0905 9.76938C94.8905 9.95604 94.6339 10.0827 94.3205 10.1494V10.1894C94.6539 10.236 94.9439 10.356 95.1905 10.5494C95.4372 10.736 95.5605 11.0294 95.5605 11.4294C95.5605 11.8827 95.3905 12.2594 95.0505 12.5594C94.7172 12.8527 94.1639 12.9994 93.3905 12.9994H91.0805V7.63938H93.3805C93.7605 7.63938 94.1005 7.68271 94.4005 7.76938C94.7072 7.84938 94.9472 7.98937 95.1205 8.18937C95.3005 8.38271 95.3905 8.64938 95.3905 8.98938ZM94.5005 9.09938C94.5005 8.84604 94.4072 8.66271 94.2205 8.54938C94.0405 8.42937 93.7439 8.36938 93.3305 8.36938H91.9605V9.83938H93.1705C94.0572 9.83938 94.5005 9.59271 94.5005 9.09938ZM94.6505 11.4294C94.6505 11.1227 94.5339 10.9027 94.3005 10.7694C94.0672 10.636 93.7239 10.5694 93.2705 10.5694H91.9605V12.2894H93.2905C93.7305 12.2894 94.0672 12.226 94.3005 12.0994C94.5339 11.966 94.6505 11.7427 94.6505 11.4294Z" fill="white"/>
</svg>
