<svg width="50" height="44" viewBox="0 0 50 44" fill="none" xmlns="http://www.w3.org/2000/svg">
<path d="M47.4675 43.74H2.43006C1.56187 43.74 0.759644 43.2768 0.325559 42.5249C-0.108525 41.773 -0.108519 40.8467 0.325575 40.0948L22.8431 1.21285C23.2775 0.462215 24.0791 0 24.9464 0C25.8137 0 26.6152 0.462215 27.0496 1.21285L49.5672 40.0948C50.001 40.8463 50.0013 41.7721 49.5678 42.5239C49.1343 43.2756 48.3329 43.7391 47.4651 43.74H47.4675ZM23.5199 31.5894C22.9676 31.5894 22.5199 32.0371 22.5199 32.5894V35.4496C22.5199 36.0019 22.9676 36.4496 23.5199 36.4496H24.7872H24.9452H25.1031H26.3753C26.9276 36.4496 27.3753 36.0019 27.3753 35.4496V32.5894C27.3753 32.0371 26.9276 31.5894 26.3753 31.5894H23.5199ZM23.5199 14.5785C22.9676 14.5785 22.5199 15.0262 22.5199 15.5785V25.7291C22.5199 26.2814 22.9676 26.7291 23.5199 26.7291H26.3801C26.9324 26.7291 27.3801 26.2814 27.3801 25.7291V15.5785C27.3801 15.0262 26.9324 14.5785 26.3801 14.5785H23.5199Z" fill="white"/>
</svg>
