<svg width="22" height="17" viewBox="0 0 22 17" fill="none" xmlns="http://www.w3.org/2000/svg">
<mask id="path-1-outside-1" maskUnits="userSpaceOnUse" x="0" y="0" width="22" height="17" fill="black">
<rect fill="white" width="22" height="17"/>
<path fill-rule="evenodd" clip-rule="evenodd" d="M9.12228 15.8282C8.9685 15.8282 8.8287 15.7771 8.71686 15.6748L1.16776 8.7848C0.944081 8.58027 0.944081 8.24791 1.16776 8.04339L8.71686 1.1534C8.94054 0.948868 9.30401 0.948868 9.52769 1.1534C9.75137 1.35792 9.75137 1.69028 9.52769 1.8948L2.89822 7.95668H20.3483C20.7085 7.95668 21.0005 8.24866 21.0005 8.60884C21.0005 8.96902 20.7085 9.261 20.3483 9.261H3.32419L9.52769 14.9334C9.75137 15.1379 9.75137 15.4703 9.52769 15.6748C9.41585 15.7771 9.27605 15.8282 9.12228 15.8282Z"/>
</mask>
<path fill-rule="evenodd" clip-rule="evenodd" d="M9.12228 15.8282C8.9685 15.8282 8.8287 15.7771 8.71686 15.6748L1.16776 8.7848C0.944081 8.58027 0.944081 8.24791 1.16776 8.04339L8.71686 1.1534C8.94054 0.948868 9.30401 0.948868 9.52769 1.1534C9.75137 1.35792 9.75137 1.69028 9.52769 1.8948L2.89822 7.95668H20.3483C20.7085 7.95668 21.0005 8.24866 21.0005 8.60884C21.0005 8.96902 20.7085 9.261 20.3483 9.261H3.32419L9.52769 14.9334C9.75137 15.1379 9.75137 15.4703 9.52769 15.6748C9.41585 15.7771 9.27605 15.8282 9.12228 15.8282Z" fill="black"/>
<path d="M8.71686 15.6748L9.12175 15.232L9.12134 15.2316L8.71686 15.6748ZM1.16776 8.7848L0.762872 9.22759L0.763282 9.22797L1.16776 8.7848ZM1.16776 8.04339L0.763281 7.60022L0.762873 7.60059L1.16776 8.04339ZM8.71686 1.1534L9.12134 1.59656L9.12175 1.59619L8.71686 1.1534ZM9.52769 1.1534L9.93258 0.7106L9.93258 0.710599L9.52769 1.1534ZM9.52769 1.8948L9.93258 2.3376L9.93258 2.3376L9.52769 1.8948ZM2.89822 7.95668L2.49334 7.51389L1.3529 8.55668H2.89822V7.95668ZM3.32419 9.261V8.661H1.77887L2.9193 9.7038L3.32419 9.261ZM9.52769 14.9334L9.93258 14.4906L9.93258 14.4906L9.52769 14.9334ZM8.31198 16.1176C8.54156 16.3275 8.82863 16.4282 9.12228 16.4282V15.2282C9.11241 15.2282 9.11086 15.2267 9.11458 15.2281C9.11618 15.2287 9.11798 15.2295 9.11965 15.2306C9.12133 15.2316 9.12203 15.2323 9.12175 15.232L8.31198 16.1176ZM0.763282 9.22797L8.31239 16.118L9.12134 15.2316L1.57223 8.34163L0.763282 9.22797ZM0.762873 7.60059C0.279042 8.043 0.279042 8.78519 0.762873 9.22759L1.57264 8.342C1.58384 8.35224 1.6 8.37816 1.6 8.41409C1.6 8.45003 1.58384 8.47594 1.57264 8.48618L0.762873 7.60059ZM8.31239 0.710226L0.763282 7.60022L1.57223 8.48656L9.12134 1.59656L8.31239 0.710226ZM9.93258 0.710599C9.47967 0.296467 8.76489 0.296467 8.31198 0.710599L9.12175 1.59619C9.11763 1.59996 9.11469 1.60106 9.11486 1.601C9.11539 1.6008 9.11808 1.6 9.12228 1.6C9.12648 1.6 9.12916 1.6008 9.1297 1.601C9.12987 1.60106 9.12693 1.59996 9.12281 1.59619L9.93258 0.710599ZM9.93258 2.3376C10.4164 1.89519 10.4164 1.15301 9.93258 0.7106L9.12281 1.59619C9.11161 1.58595 9.09545 1.56004 9.09545 1.5241C9.09545 1.48816 9.11161 1.46225 9.12281 1.45201L9.93258 2.3376ZM3.30311 8.39948L9.93258 2.3376L9.12281 1.45201L2.49334 7.51389L3.30311 8.39948ZM2.89822 8.55668H20.3483V7.35668H2.89822V8.55668ZM20.3483 8.55668C20.3772 8.55668 20.4005 8.58003 20.4005 8.60884H21.6005C21.6005 7.91729 21.0399 7.35668 20.3483 7.35668V8.55668ZM20.4005 8.60884C20.4005 8.63765 20.3772 8.661 20.3483 8.661V9.861C21.0399 9.861 21.6005 9.30039 21.6005 8.60884H20.4005ZM20.3483 8.661H3.32419V9.861H20.3483V8.661ZM9.93258 14.4906L3.72907 8.8182L2.9193 9.7038L9.12281 15.3762L9.93258 14.4906ZM9.93258 16.1176C10.4164 15.6752 10.4164 14.933 9.93258 14.4906L9.12281 15.3762C9.1116 15.3659 9.09545 15.34 9.09545 15.3041C9.09545 15.2682 9.1116 15.2422 9.12281 15.232L9.93258 16.1176ZM9.12228 16.4282C9.41593 16.4282 9.70299 16.3275 9.93258 16.1176L9.12281 15.232C9.12252 15.2323 9.12323 15.2316 9.1249 15.2306C9.12658 15.2295 9.12838 15.2287 9.12997 15.2281C9.13369 15.2267 9.13215 15.2282 9.12228 15.2282V16.4282Z" fill="black" mask="url(#path-1-outside-1)"/>
</svg>
