<svg width="22" height="14" viewBox="0 0 22 14" fill="none" xmlns="http://www.w3.org/2000/svg">
<path d="M11 4C10.4067 4 9.82664 4.17595 9.33329 4.50559C8.83994 4.83524 8.45542 5.30377 8.22836 5.85195C8.0013 6.40013 7.94189 7.00333 8.05764 7.58527C8.1734 8.16721 8.45912 8.70176 8.87868 9.12132C9.29824 9.54088 9.83279 9.8266 10.4147 9.94236C10.9967 10.0581 11.5999 9.9987 12.1481 9.77164C12.6962 9.54458 13.1648 9.16006 13.4944 8.66671C13.8241 8.17336 14 7.59334 14 7C14 6.20435 13.6839 5.44129 13.1213 4.87868C12.5587 4.31607 11.7956 4 11 4ZM11 8C10.8022 8 10.6089 7.94135 10.4444 7.83147C10.28 7.72159 10.1518 7.56541 10.0761 7.38268C10.0004 7.19996 9.98063 6.99889 10.0192 6.80491C10.0578 6.61093 10.153 6.43275 10.2929 6.29289C10.4327 6.15304 10.6109 6.0578 10.8049 6.01921C10.9989 5.98063 11.2 6.00043 11.3827 6.07612C11.5654 6.15181 11.7216 6.27998 11.8315 6.44443C11.9414 6.60888 12 6.80222 12 7C12 7.26522 11.8946 7.51957 11.7071 7.70711C11.5196 7.89464 11.2652 8 11 8ZM18 7C18 6.80222 17.9414 6.60888 17.8315 6.44443C17.7216 6.27998 17.5654 6.15181 17.3827 6.07612C17.2 6.00043 16.9989 5.98063 16.8049 6.01921C16.6109 6.0578 16.4327 6.15304 16.2929 6.29289C16.153 6.43275 16.0578 6.61093 16.0192 6.80491C15.9806 6.99889 16.0004 7.19996 16.0761 7.38268C16.1518 7.56541 16.28 7.72159 16.4444 7.83147C16.6089 7.94135 16.8022 8 17 8C17.2652 8 17.5196 7.89464 17.7071 7.70711C17.8946 7.51957 18 7.26522 18 7ZM19 0H16C15.7348 0 15.4804 0.105357 15.2929 0.292893C15.1054 0.48043 15 0.734784 15 1C15 1.26522 15.1054 1.51957 15.2929 1.70711C15.4804 1.89464 15.7348 2 16 2H19C19.2652 2 19.5196 2.10536 19.7071 2.29289C19.8946 2.48043 20 2.73478 20 3V11C20 11.2652 19.8946 11.5196 19.7071 11.7071C19.5196 11.8946 19.2652 12 19 12H3C2.73478 12 2.48043 11.8946 2.29289 11.7071C2.10536 11.5196 2 11.2652 2 11V3C2 2.73478 2.10536 2.48043 2.29289 2.29289C2.48043 2.10536 2.73478 2 3 2H16C16.2652 2 16.5196 1.89464 16.7071 1.70711C16.8946 1.51957 17 1.26522 17 1C17 0.734784 16.8946 0.48043 16.7071 0.292893C16.5196 0.105357 16.2652 0 16 0H3C2.20435 0 1.44129 0.31607 0.87868 0.878679C0.31607 1.44129 0 2.20435 0 3V11C0 11.7956 0.31607 12.5587 0.87868 13.1213C1.44129 13.6839 2.20435 14 3 14H19C19.7956 14 20.5587 13.6839 21.1213 13.1213C21.6839 12.5587 22 11.7956 22 11V3C22 2.20435 21.6839 1.44129 21.1213 0.878679C20.5587 0.31607 19.7956 0 19 0ZM4 7C4 7.19778 4.05865 7.39112 4.16853 7.55557C4.27841 7.72002 4.43459 7.84819 4.61732 7.92388C4.80004 7.99957 5.00111 8.01937 5.19509 7.98079C5.38907 7.9422 5.56725 7.84696 5.70711 7.70711C5.84696 7.56725 5.9422 7.38907 5.98079 7.19509C6.01937 7.00111 5.99957 6.80004 5.92388 6.61732C5.84819 6.43459 5.72002 6.27841 5.55557 6.16853C5.39112 6.05865 5.19778 6 5 6C4.73478 6 4.48043 6.10536 4.29289 6.29289C4.10536 6.48043 4 6.73478 4 7Z" fill="#787878"/>
</svg>
