<svg width="38" height="38" viewBox="0 0 38 38" fill="none" xmlns="http://www.w3.org/2000/svg">
<path d="M28.6727 33.2778C28.6727 34.2289 27.9017 35 26.9505 35H11.0495C10.0983 35 9.32727 34.2289 9.32727 33.2778C9.32727 32.3266 10.0983 31.5556 11.0495 31.5556H13.8182V29.8333H3.45455C1.54665 29.8333 0 28.2912 0 26.3889V7.44444C0 5.54213 1.54665 4 3.45455 4H34.5455C36.4534 4 38 5.54213 38 7.44444V26.3889C38 28.2912 36.4534 29.8333 34.5455 29.8333H24.1818V31.5556H26.9505C27.9017 31.5556 28.6727 32.3266 28.6727 33.2778ZM4.10811 8.13333L4 26.1351H34L33.8919 8.13333H4.10811Z" fill="#349EEF"/>
</svg>
