<svg width="16" height="16" viewBox="0 0 16 16" fill="none" xmlns="http://www.w3.org/2000/svg">
<circle cx="8" cy="8" r="8" fill="#DC0000"/>
<path d="M10.521 4.94653L10.4156 4.84233L10.3101 4.94653L8.03392 7.19602L5.75769 4.94653L5.65226 4.84233L5.54682 4.94653L4.94608 5.54022L4.83812 5.64691L4.94608 5.7536L7.21978 8.00059L4.94608 10.2476L4.83812 10.3543L4.94608 10.461L5.54682 11.0547L5.65226 11.1588L5.75769 11.0547L8.03392 8.80517L10.3101 11.0547L10.4156 11.1588L10.521 11.0547L11.1218 10.461L11.2297 10.3543L11.1218 10.2476L8.84806 8.00059L11.1218 5.7536L11.2297 5.64691L11.1218 5.54022L10.521 4.94653Z" fill="white" stroke="white" stroke-width="0.3"/>
</svg>
