<svg width="134" height="38" viewBox="0 0 134 38" fill="none" xmlns="http://www.w3.org/2000/svg">
<rect width="134" height="38" rx="6" fill="black"/>
<path d="M68.1354 21.7519C67.2949 21.7551 66.4741 22.0073 65.7768 22.4766C65.0795 22.9458 64.5369 23.6112 64.2175 24.3887C63.898 25.1661 63.8161 26.0208 63.982 26.8448C64.148 27.6687 64.5543 28.4251 65.1498 29.0183C65.7452 29.6115 66.5031 30.0149 67.3277 30.1777C68.1523 30.3405 69.0066 30.2554 69.7829 29.933C70.5591 29.6106 71.2224 29.0654 71.689 28.3663C72.1557 27.6672 72.4047 26.8456 72.4047 26.0051C72.4129 25.4429 72.308 24.8848 72.0962 24.364C71.8844 23.8432 71.5699 23.3703 71.1716 22.9735C70.7733 22.5767 70.2992 22.264 69.7776 22.0542C69.256 21.8443 68.6975 21.7416 68.1354 21.7519ZM68.1354 28.5828C67.6178 28.6197 67.101 28.4999 66.6524 28.239C66.2038 27.9781 65.8442 27.5882 65.6203 27.12C65.3964 26.6519 65.3186 26.1272 65.3971 25.6142C65.4756 25.1012 65.7068 24.6238 66.0604 24.244C66.4141 23.8642 66.8739 23.5997 67.3799 23.4849C67.886 23.3701 68.4149 23.4104 68.8978 23.6004C69.3807 23.7904 69.7952 24.1214 70.0874 24.5503C70.3795 24.9792 70.5358 25.4861 70.5358 26.0051C70.5515 26.3329 70.5015 26.6606 70.3886 26.9688C70.2758 27.277 70.1024 27.5595 69.8787 27.7997C69.6551 28.0399 69.3856 28.2329 69.0862 28.3674C68.7868 28.5019 68.4635 28.5751 68.1354 28.5828ZM58.822 21.7519C57.9815 21.7551 57.1607 22.0073 56.4634 22.4765C55.7661 22.9458 55.2234 23.6112 54.904 24.3886C54.5845 25.166 54.5026 26.0207 54.6685 26.8447C54.8344 27.6687 55.2408 28.425 55.8362 29.0182C56.4317 29.6114 57.1896 30.0149 58.0142 30.1777C58.8388 30.3405 59.6931 30.2554 60.4694 29.933C61.2456 29.6106 61.9089 29.0654 62.3755 28.3663C62.8422 27.6672 63.0912 26.8456 63.0912 26.0051C63.0994 25.4429 62.9945 24.8848 62.7827 24.364C62.5709 23.8432 62.2565 23.3703 61.8582 22.9735C61.4598 22.5767 60.9858 22.2641 60.4642 22.0542C59.9426 21.8444 59.3841 21.7416 58.822 21.7519ZM58.822 28.5828C58.3044 28.6197 57.7876 28.4999 57.339 28.239C56.8904 27.9781 56.5308 27.5882 56.3069 27.12C56.083 26.6519 56.0052 26.1272 56.0837 25.6142C56.1622 25.1012 56.3934 24.6238 56.747 24.244C57.1007 23.8642 57.5605 23.5997 58.0665 23.4849C58.5726 23.3701 59.1015 23.4104 59.5844 23.6004C60.0673 23.7904 60.4818 24.1214 60.774 24.5503C61.0661 24.9792 61.2224 25.4861 61.2224 26.0051C61.2381 26.3329 61.1881 26.6606 61.0752 26.9688C60.9624 27.277 60.789 27.5595 60.5654 27.7997C60.3417 28.0399 60.0722 28.2329 59.7728 28.3674C59.4734 28.5019 59.1501 28.5751 58.822 28.5828ZM47.7432 23.0569V24.8612H52.0609C51.9986 25.7076 51.6523 26.508 51.0781 27.1329C50.6454 27.5739 50.1251 27.9193 49.5507 28.1468C48.9762 28.3744 48.3605 28.479 47.7432 28.4538C46.4812 28.4368 45.2766 27.9234 44.3902 27.025C43.5038 26.1265 43.0068 24.9151 43.0068 23.653C43.0068 22.3908 43.5038 21.1794 44.3902 20.2809C45.2766 19.3825 46.4812 18.8691 47.7432 18.8521C48.9554 18.8362 50.1249 19.2994 50.9976 20.1409L52.2703 18.8682C51.6748 18.2787 50.9677 17.814 50.1903 17.5014C49.4129 17.1888 48.581 17.0345 47.7432 17.0476C46.8677 17.0349 45.9984 17.1963 45.1858 17.5226C44.3732 17.8488 43.6336 18.3333 43.01 18.9479C42.3864 19.5625 41.8911 20.295 41.5531 21.1027C41.2151 21.9105 41.041 22.7773 41.041 23.653C41.041 24.5286 41.2151 25.3954 41.5531 26.2032C41.8911 27.0109 42.3864 27.7434 43.01 28.358C43.6336 28.9726 44.3732 29.4571 45.1858 29.7833C45.9984 30.1096 46.8677 30.271 47.7432 30.2582C48.5986 30.2937 49.4519 30.1469 50.2462 29.8275C51.0406 29.508 51.758 29.0234 52.3508 28.4056C53.4032 27.2568 53.9641 25.7418 53.9136 24.1847C53.9177 23.8065 53.8853 23.4289 53.8168 23.0569H47.7432ZM93.0515 24.4585C92.7959 23.6881 92.3093 23.0151 91.6579 22.5309C91.0065 22.0466 90.2218 21.7747 89.4105 21.7519C88.864 21.7553 88.3239 21.8695 87.8228 22.0875C87.3217 22.3056 86.8701 22.623 86.4951 23.0205C86.1201 23.4181 85.8297 23.8875 85.6413 24.4005C85.4529 24.9135 85.3705 25.4593 85.3991 26.0051C85.3868 26.5642 85.4873 27.1202 85.6946 27.6396C85.902 28.1591 86.2119 28.6314 86.6059 29.0284C86.9999 29.4254 87.4698 29.7389 87.9877 29.9502C88.5056 30.1615 89.0607 30.2663 89.62 30.2582C90.3206 30.2621 91.0113 30.0919 91.6299 29.7629C92.2485 29.4339 92.7757 28.9565 93.1642 28.3734L91.7143 27.4067C91.4971 27.7675 91.1898 28.0656 90.8227 28.2717C90.4555 28.4779 90.0411 28.5851 89.62 28.5828C89.1867 28.5993 88.7584 28.4853 88.3907 28.2555C88.023 28.0257 87.7328 27.6907 87.5578 27.2939L93.2449 24.9419L93.0515 24.4585ZM87.2518 25.8762C87.2317 25.5667 87.2737 25.2562 87.3751 24.9631C87.4765 24.6699 87.6353 24.3999 87.8423 24.1689C88.0493 23.9379 88.3003 23.7505 88.5807 23.6176C88.861 23.4848 89.165 23.4092 89.4749 23.3953C89.7976 23.374 90.1194 23.4483 90.4001 23.6087C90.6809 23.7691 90.9082 24.0087 91.0538 24.2974L87.2518 25.8762ZM82.628 30.0005H84.4968V17.4988H82.628V30.0005ZM79.567 22.7024H79.5026C79.2185 22.3938 78.8717 22.1493 78.4855 21.9854C78.0993 21.8215 77.6826 21.7419 77.2632 21.7519C76.1665 21.7986 75.1302 22.2671 74.3707 23.0596C73.6112 23.8521 73.1872 24.9074 73.1872 26.0051C73.1872 27.1028 73.6112 28.158 74.3707 28.9506C75.1302 29.7431 76.1665 30.2116 77.2632 30.2582C77.6843 30.2695 78.1027 30.1888 78.4895 30.0219C78.8762 29.8549 79.2219 29.6057 79.5026 29.2917H79.567V29.9039C79.567 31.5311 78.6971 32.4009 77.2954 32.4009C76.8282 32.3898 76.375 32.2398 75.9934 31.9701C75.6119 31.7004 75.3192 31.3232 75.1528 30.8865L73.5256 31.5632C73.8323 32.3099 74.3549 32.948 75.0265 33.3958C75.6982 33.8435 76.4882 34.0805 77.2954 34.0764C79.4865 34.0764 81.3392 32.7876 81.3392 29.646V22.0096H79.567V22.7024ZM77.4244 28.5828C76.7784 28.528 76.1766 28.2327 75.738 27.7553C75.2994 27.278 75.056 26.6534 75.056 26.0051C75.056 25.3568 75.2994 24.7322 75.738 24.2549C76.1766 23.7775 76.7784 23.4822 77.4244 23.4275C77.7457 23.4431 78.0606 23.5234 78.3503 23.6634C78.64 23.8034 78.8986 24.0002 79.1105 24.2423C79.3225 24.4843 79.4836 24.7666 79.5841 25.0722C79.6847 25.3778 79.7227 25.7005 79.6959 26.0212C79.721 26.3398 79.6816 26.6602 79.58 26.9633C79.4785 27.2663 79.3168 27.5458 79.1048 27.7849C78.8927 28.0241 78.6346 28.218 78.3459 28.3551C78.0571 28.4921 77.7437 28.5696 77.4244 28.5828ZM101.805 17.4991H97.3342V30.0005H99.1999V25.264H101.805C102.333 25.293 102.861 25.214 103.357 25.032C103.854 24.8499 104.308 24.5686 104.691 24.2053C105.075 23.8419 105.381 23.4041 105.59 22.9186C105.799 22.4331 105.907 21.9101 105.907 21.3815C105.907 20.853 105.799 20.33 105.59 19.8445C105.381 19.359 105.075 18.9212 104.691 18.5578C104.308 18.1945 103.854 17.9132 103.357 17.7311C102.861 17.5491 102.333 17.4701 101.805 17.4991ZM101.854 23.5243H99.1999V19.239H101.854C102.139 19.233 102.422 19.2841 102.687 19.3891C102.952 19.4941 103.194 19.651 103.398 19.8506C103.601 20.0501 103.763 20.2883 103.874 20.5512C103.984 20.8141 104.041 21.0964 104.041 21.3816C104.041 21.6668 103.984 21.9491 103.874 22.212C103.763 22.4749 103.601 22.7131 103.398 22.9126C103.194 23.1122 102.952 23.2691 102.687 23.3741C102.422 23.4791 102.139 23.5302 101.854 23.5243ZM113.385 21.729C112.704 21.6892 112.026 21.8491 111.435 22.1891C110.844 22.5291 110.364 23.0343 110.056 23.6428L111.713 24.3344C111.877 24.0324 112.126 23.7848 112.428 23.622C112.731 23.4592 113.075 23.3882 113.417 23.4177C113.891 23.3714 114.363 23.5148 114.731 23.8163C115.099 24.1177 115.332 24.5528 115.38 25.0259V25.1546C114.78 24.8363 114.112 24.6706 113.433 24.6721C111.648 24.6721 109.831 25.6532 109.831 27.4867C109.848 27.8732 109.943 28.2521 110.11 28.6012C110.276 28.9503 110.511 29.2623 110.801 29.5189C111.09 29.7754 111.428 29.9711 111.795 30.0945C112.162 30.2178 112.549 30.2663 112.935 30.2369C113.405 30.2646 113.873 30.1658 114.292 29.9508C114.711 29.7359 115.064 29.4126 115.315 29.0147H115.38V29.9797H117.181V25.1868C117.181 22.9673 115.524 21.729 113.385 21.729ZM113.16 28.5803C112.549 28.5803 111.696 28.2748 111.696 27.5189C111.696 26.554 112.758 26.184 113.675 26.184C114.27 26.1681 114.859 26.3125 115.38 26.6021C115.311 27.1444 115.049 27.6435 114.64 28.0071C114.232 28.3708 113.707 28.5744 113.16 28.5803ZM123.743 22.0023L121.604 27.4223H121.539L119.32 22.0023H117.31L120.639 29.5775L118.741 33.7913H120.687L125.818 22.0023H123.743ZM106.936 30.0005H108.801V17.4991H106.936V30.0005Z" fill="white"/>
<path d="M10.4353 9.53744C10.1074 9.92952 9.94182 10.4321 9.97251 10.9423V33.0584C9.94173 33.5687 10.1073 34.0713 10.4353 34.4633L10.5093 34.5354L22.8983 22.1465V21.8542L10.5093 9.46484L10.4353 9.53744Z" fill="url(#paint0_linear)"/>
<path d="M27.0278 24.2787L22.8984 20.1473V19.855L27.0288 15.7246L27.1219 15.7777L32.0147 18.5578C33.4123 19.3518 33.4123 20.651 32.0147 21.4455L27.1219 24.2256L27.0278 24.2787Z" fill="url(#paint1_linear)"/>
<path d="M27.122 24.2239L22.8985 20L10.4355 32.4629C10.7203 32.7141 11.084 32.8577 11.4635 32.8689C11.843 32.8801 12.2145 32.7582 12.5136 32.5243L27.122 24.2239Z" fill="url(#paint2_linear)"/>
<path d="M27.122 15.7766L12.5136 7.47617C12.2145 7.24226 11.843 7.12036 11.4635 7.13157C11.084 7.14278 10.7203 7.28641 10.4355 7.53757L22.8985 20.0006L27.122 15.7766Z" fill="url(#paint3_linear)"/>
<path opacity="0.2" d="M27.0289 24.1328L12.5136 32.3801C12.2261 32.599 11.8751 32.7185 11.5136 32.7204C11.1522 32.7224 10.8 32.6067 10.51 32.3908L10.4355 32.4653L10.5095 32.5374L10.51 32.5369C10.7999 32.7529 11.1522 32.8686 11.5136 32.8667C11.8751 32.8648 12.2261 32.7453 12.5136 32.5262L27.122 24.2258L27.0289 24.1328Z" fill="black"/>
<path opacity="0.12" d="M10.4353 34.319C10.1074 33.9269 9.94183 33.4243 9.97248 32.9141V33.0602C9.94181 33.5704 10.1074 34.073 10.4353 34.4651L10.5098 34.3906L10.4353 34.319Z" fill="black"/>
<path opacity="0.12" d="M32.0152 21.2993L27.0293 24.1325L27.1224 24.2255L32.0152 21.4454C32.303 21.3204 32.5521 21.1207 32.7364 20.8668C32.9208 20.6129 33.0338 20.3143 33.0635 20.002C33.0016 20.2848 32.8747 20.5493 32.6927 20.7745C32.5107 20.9997 32.2788 21.1794 32.0152 21.2993Z" fill="black"/>
<path opacity="0.25" d="M12.5136 7.62334L32.0148 18.7033C32.2784 18.8232 32.5105 19.0029 32.6925 19.2282C32.8744 19.4535 33.0013 19.7182 33.0631 20.0011C33.0335 19.6887 32.9207 19.3899 32.7363 19.1359C32.5519 18.8819 32.3027 18.6821 32.0148 18.5572L12.5136 7.47724C11.116 6.68314 9.97266 7.34274 9.97266 8.94354V9.08964C9.97266 7.48894 11.116 6.82934 12.5136 7.62334Z" fill="white"/>
<path d="M47.5455 8.52977C47.5455 9.01643 47.3921 9.4031 47.0855 9.68977C46.7788 9.96977 46.3688 10.1498 45.8555 10.2298V10.2698C46.4555 10.3498 46.9121 10.5364 47.2255 10.8298C47.5388 11.1231 47.6955 11.5064 47.6955 11.9798C47.6955 12.6064 47.4555 13.1164 46.9755 13.5098C46.4955 13.9031 45.7755 14.0998 44.8155 14.0998C44.4288 14.0998 44.0588 14.0698 43.7055 14.0098C43.3588 13.9564 43.0355 13.8564 42.7355 13.7098V12.8898C43.0488 13.0364 43.3888 13.1531 43.7555 13.2398C44.1288 13.3198 44.4788 13.3598 44.8055 13.3598C45.4455 13.3598 45.9288 13.2398 46.2555 12.9998C46.5888 12.7598 46.7555 12.4198 46.7555 11.9798C46.7555 11.5264 46.5621 11.1964 46.1755 10.9898C45.7888 10.7831 45.2488 10.6798 44.5555 10.6798H43.5355V9.92977H44.5055C45.2121 9.92977 45.7388 9.8131 46.0855 9.57977C46.4388 9.33977 46.6155 9.01977 46.6155 8.61977C46.6155 8.25977 46.4821 7.9831 46.2155 7.78977C45.9488 7.59643 45.6021 7.49977 45.1755 7.49977C44.7288 7.49977 44.3555 7.55643 44.0555 7.66977C43.7621 7.7831 43.4755 7.92977 43.1955 8.10977L42.7655 7.49977C43.0455 7.2931 43.3888 7.11977 43.7955 6.97977C44.2088 6.8331 44.6721 6.75977 45.1855 6.75977C45.9588 6.75977 46.5455 6.92643 46.9455 7.25977C47.3455 7.5931 47.5455 8.01643 47.5455 8.52977Z" fill="white"/>
<path d="M51.1144 8.54977C51.7677 8.54977 52.251 8.6931 52.5644 8.97977C52.8777 9.26643 53.0344 9.7231 53.0344 10.3498V13.9998H52.3944L52.2244 13.2398H52.1844C51.951 13.5331 51.7044 13.7498 51.4444 13.8898C51.191 14.0298 50.8377 14.0998 50.3844 14.0998C49.8977 14.0998 49.4944 13.9731 49.1744 13.7198C48.8544 13.4598 48.6944 13.0564 48.6944 12.5098C48.6944 11.9764 48.9044 11.5664 49.3244 11.2798C49.7444 10.9864 50.391 10.8264 51.2644 10.7998L52.1744 10.7698V10.4498C52.1744 10.0031 52.0777 9.6931 51.8844 9.51977C51.691 9.34643 51.4177 9.25977 51.0644 9.25977C50.7844 9.25977 50.5177 9.3031 50.2644 9.38977C50.011 9.46977 49.7744 9.5631 49.5544 9.66977L49.2844 9.00977C49.5177 8.8831 49.7944 8.77643 50.1144 8.68977C50.4344 8.59643 50.7677 8.54977 51.1144 8.54977ZM51.3744 11.4098C50.7077 11.4364 50.2444 11.5431 49.9844 11.7298C49.731 11.9164 49.6044 12.1798 49.6044 12.5198C49.6044 12.8198 49.6944 13.0398 49.8744 13.1798C50.061 13.3198 50.2977 13.3898 50.5844 13.3898C51.0377 13.3898 51.4144 13.2664 51.7144 13.0198C52.0144 12.7664 52.1644 12.3798 52.1644 11.8598V11.3798L51.3744 11.4098Z" fill="white"/>
<path d="M57.9598 8.63977V9.37977H55.5698V13.9998H54.6898V8.63977H57.9598Z" fill="white"/>
<path d="M61.566 8.53977C62.226 8.53977 62.756 8.76977 63.156 9.22977C63.5627 9.68977 63.766 10.3831 63.766 11.3098C63.766 12.2231 63.5627 12.9164 63.156 13.3898C62.756 13.8631 62.2227 14.0998 61.556 14.0998C61.1427 14.0998 60.7994 14.0231 60.526 13.8698C60.2594 13.7098 60.0494 13.5264 59.896 13.3198H59.836C59.8494 13.4331 59.8627 13.5764 59.876 13.7498C59.8894 13.9231 59.896 14.0731 59.896 14.1998V16.3998H59.016V8.63977H59.736L59.856 9.36977H59.896C60.056 9.13643 60.266 8.93977 60.526 8.77977C60.786 8.61977 61.1327 8.53977 61.566 8.53977ZM61.406 9.27977C60.8594 9.27977 60.4727 9.4331 60.246 9.73977C60.026 10.0464 59.9094 10.5131 59.896 11.1398V11.3098C59.896 11.9698 60.0027 12.4798 60.216 12.8398C60.436 13.1931 60.8394 13.3698 61.426 13.3698C61.7527 13.3698 62.0194 13.2798 62.226 13.0998C62.4394 12.9198 62.596 12.6764 62.696 12.3698C62.8027 12.0564 62.856 11.6998 62.856 11.2998C62.856 10.6864 62.736 10.1964 62.496 9.82977C62.2627 9.4631 61.8994 9.27977 61.406 9.27977Z" fill="white"/>
<path d="M64.2307 8.63977H65.1707L66.3307 11.6898C66.4307 11.9564 66.5207 12.2131 66.6007 12.4598C66.6807 12.6998 66.7407 12.9298 66.7807 13.1498H66.8207C66.8607 12.9831 66.924 12.7664 67.0107 12.4998C67.0974 12.2264 67.1874 11.9531 67.2807 11.6798L68.3707 8.63977H69.3207L67.0107 14.7398C66.824 15.2464 66.5807 15.6498 66.2807 15.9498C65.9874 16.2498 65.5807 16.3998 65.0607 16.3998C64.9007 16.3998 64.7607 16.3898 64.6407 16.3698C64.5207 16.3564 64.4174 16.3398 64.3307 16.3198V15.6198C64.404 15.6331 64.4907 15.6464 64.5907 15.6598C64.6974 15.6731 64.8074 15.6798 64.9207 15.6798C65.2274 15.6798 65.474 15.5931 65.6607 15.4198C65.854 15.2464 66.004 15.0164 66.1107 14.7298L66.3907 14.0198L64.2307 8.63977Z" fill="white"/>
<path d="M71.5784 8.53977C72.1917 8.53977 72.6784 8.6631 73.0384 8.90977C73.405 9.14977 73.5884 9.49643 73.5884 9.94977C73.5884 10.2764 73.4984 10.5364 73.3184 10.7298C73.1384 10.9164 72.8917 11.0531 72.5784 11.1398V11.1798C72.7917 11.2398 72.9884 11.3231 73.1684 11.4298C73.3484 11.5364 73.4917 11.6764 73.5984 11.8498C73.7117 12.0231 73.7684 12.2464 73.7684 12.5198C73.7684 12.9664 73.5817 13.3431 73.2084 13.6498C72.8417 13.9498 72.265 14.0998 71.4784 14.0998C71.0917 14.0998 70.7417 14.0664 70.4284 13.9998C70.115 13.9398 69.855 13.8564 69.6484 13.7498V12.9598C69.875 13.0664 70.1417 13.1631 70.4484 13.2498C70.7617 13.3364 71.1017 13.3798 71.4684 13.3798C71.8684 13.3798 72.205 13.3131 72.4784 13.1798C72.7584 13.0398 72.8984 12.8031 72.8984 12.4698C72.8984 11.8698 72.3884 11.5698 71.3684 11.5698H70.6484V10.8498H71.2284C71.6884 10.8498 72.055 10.7898 72.3284 10.6698C72.6084 10.5431 72.7484 10.3298 72.7484 10.0298C72.7484 9.77643 72.6417 9.58643 72.4284 9.45977C72.2217 9.3331 71.9217 9.26977 71.5284 9.26977C71.235 9.26977 70.975 9.29977 70.7484 9.35977C70.5284 9.4131 70.285 9.49643 70.0184 9.60977L69.7084 8.90977C70.2684 8.6631 70.8917 8.53977 71.5784 8.53977Z" fill="white"/>
<path d="M75.9007 11.9098C75.9007 11.9898 75.8974 12.1098 75.8907 12.2698C75.884 12.4298 75.874 12.5898 75.8607 12.7498C75.854 12.9098 75.8474 13.0364 75.8407 13.1298L78.7107 8.63977H79.7907V13.9998H78.9707V10.8398C78.9707 10.7331 78.9707 10.5931 78.9707 10.4198C78.9774 10.2464 78.984 10.0764 78.9907 9.90977C78.9974 9.73643 79.004 9.60643 79.0107 9.51977L76.1607 13.9998H75.0707V8.63977H75.9007V11.9098Z" fill="white"/>
<path d="M85.1965 9.37977H83.4465V13.9998H82.5765V9.37977H80.8465V8.63977H85.1965V9.37977Z" fill="white"/>
<path d="M88.2247 8.53977C88.6847 8.53977 89.078 8.63977 89.4047 8.83977C89.738 9.03977 89.9914 9.3231 90.1647 9.68977C90.3447 10.0498 90.4347 10.4731 90.4347 10.9598V11.4898H86.7647C86.778 12.0964 86.9314 12.5598 87.2247 12.8798C87.5247 13.1931 87.9414 13.3498 88.4747 13.3498C88.8147 13.3498 89.1147 13.3198 89.3747 13.2598C89.6414 13.1931 89.9147 13.0998 90.1947 12.9798V13.7498C89.9214 13.8698 89.6514 13.9564 89.3847 14.0098C89.118 14.0698 88.8014 14.0998 88.4347 14.0998C87.928 14.0998 87.478 13.9964 87.0847 13.7898C86.698 13.5831 86.3947 13.2764 86.1747 12.8698C85.9614 12.4564 85.8547 11.9531 85.8547 11.3598C85.8547 10.7731 85.9514 10.2698 86.1447 9.84977C86.3447 9.42977 86.6214 9.10643 86.9747 8.87977C87.3347 8.6531 87.7514 8.53977 88.2247 8.53977ZM88.2147 9.25977C87.7947 9.25977 87.4614 9.39643 87.2147 9.66977C86.9747 9.93643 86.8314 10.3098 86.7847 10.7898H89.5147C89.508 10.3364 89.4014 9.96977 89.1947 9.68977C88.988 9.4031 88.6614 9.25977 88.2147 9.25977Z" fill="white"/>
<path d="M98.0428 9.98977C98.0428 10.3231 97.9428 10.5831 97.7428 10.7698C97.5428 10.9564 97.2861 11.0831 96.9728 11.1498V11.1898C97.3061 11.2364 97.5961 11.3564 97.8428 11.5498C98.0895 11.7364 98.2128 12.0298 98.2128 12.4298C98.2128 12.8831 98.0428 13.2598 97.7028 13.5598C97.3695 13.8531 96.8162 13.9998 96.0428 13.9998H93.7328V8.63977H96.0328C96.4128 8.63977 96.7528 8.6831 97.0528 8.76977C97.3595 8.84977 97.5995 8.98977 97.7728 9.18977C97.9528 9.3831 98.0428 9.64977 98.0428 9.98977ZM97.1528 10.0998C97.1528 9.84643 97.0595 9.6631 96.8728 9.54977C96.6928 9.42977 96.3961 9.36977 95.9828 9.36977H94.6128V10.8398H95.8228C96.7095 10.8398 97.1528 10.5931 97.1528 10.0998ZM97.3028 12.4298C97.3028 12.1231 97.1861 11.9031 96.9528 11.7698C96.7195 11.6364 96.3762 11.5698 95.9228 11.5698H94.6128V13.2898H95.9428C96.3828 13.2898 96.7195 13.2264 96.9528 13.0998C97.1861 12.9664 97.3028 12.7431 97.3028 12.4298Z" fill="white"/>
<defs>
<linearGradient id="paint0_linear" x1="21.7996" y1="10.7092" x2="5.01724" y2="27.4916" gradientUnits="userSpaceOnUse">
<stop stop-color="#00A0FF"/>
<stop offset="0.00657" stop-color="#00A1FF"/>
<stop offset="0.2601" stop-color="#00BEFF"/>
<stop offset="0.5122" stop-color="#00D2FF"/>
<stop offset="0.7604" stop-color="#00DFFF"/>
<stop offset="1" stop-color="#00E3FF"/>
</linearGradient>
<linearGradient id="paint1_linear" x1="33.8344" y1="20.0017" x2="9.63752" y2="20.0017" gradientUnits="userSpaceOnUse">
<stop stop-color="#FFE000"/>
<stop offset="0.4087" stop-color="#FFBD00"/>
<stop offset="0.7754" stop-color="#FFA500"/>
<stop offset="1" stop-color="#FF9C00"/>
</linearGradient>
<linearGradient id="paint2_linear" x1="24.8271" y1="22.2951" x2="2.06882" y2="45.0534" gradientUnits="userSpaceOnUse">
<stop stop-color="#FF3A44"/>
<stop offset="1" stop-color="#C31162"/>
</linearGradient>
<linearGradient id="paint3_linear" x1="7.29748" y1="0.175749" x2="17.46" y2="10.3383" gradientUnits="userSpaceOnUse">
<stop stop-color="#32A071"/>
<stop offset="0.0685" stop-color="#2DA771"/>
<stop offset="0.4762" stop-color="#15CF74"/>
<stop offset="0.8009" stop-color="#06E775"/>
<stop offset="1" stop-color="#00F076"/>
</linearGradient>
</defs>
</svg>
