<svg width="102" height="63" viewBox="0 0 102 63" fill="none" xmlns="http://www.w3.org/2000/svg">
<path d="M43.2844 4.87286L44.4541 4.19901L51.7338 0L59.0135 4.19901L66.2932 8.40359V16.629L61.5032 13.8556V11.1658L56.6185 8.3479L51.7338 5.52443L46.8491 8.3479L43.2844 10.4029V4.87286Z" fill="#DC0000"/>
<path d="M53.049 27.3186L56.608 25.2637L61.4927 22.4458V19.3828L66.2827 22.1562V25.208L59.003 29.4125L57.839 30.0864L53.049 27.3186Z" fill="#DC0000"/>
<path d="M51.726 33.6104L44.4463 29.4114L37.1666 25.2068V16.8032V8.39962L41.9566 5.63184V11.1618V16.8032V19.1032V22.4446L46.8413 25.2625L46.8915 25.2904L51.726 28.086L56.516 30.8482L51.726 33.6104Z" fill="black"/>
<path d="M48.0744 6.35742H43.2844V21.5329H48.0744V6.35742Z" fill="#DC0000"/>
<path d="M60.2444 25.9334L57.8494 30.0823L43.2844 21.5339L45.6794 17.3906L60.2444 25.9334Z" fill="#DC0000"/>
<path d="M66.2873 24.4595L52.3517 16.3845V10.8545L66.2873 18.9295V24.4595Z" fill="#DC0000"/>
<path d="M12.1466 62.2376H0V48.0684H3.23839V58.9992H12.1413L12.1466 62.2376Z" fill="black"/>
<path d="M28.131 62.2376H19.8332L18.4158 58.9992H23.0663L20.5393 53.2976L16.5842 62.2376H12.953V58.9992H14.3917L19.228 48.0684H21.8612L28.131 62.2376Z" fill="black"/>
<path d="M42.0913 62.2376H38.8529L32.1744 54.2001V62.2376H28.936V48.0684H32.1797L38.8529 56.0953V48.0684H42.0913V62.2376Z" fill="black"/>
<path d="M57.0603 62.2351H49.9783C48.0193 62.2351 46.3523 61.545 44.9667 60.1594C43.5811 58.7791 42.891 57.1068 42.891 55.1478C42.891 53.1942 43.5811 51.5219 44.9667 50.1363C46.347 48.756 48.0193 48.0605 49.9783 48.0605H57.0603V51.2989H49.9783C48.9112 51.2989 48.0034 51.6759 47.2549 52.4244C46.5063 53.173 46.1294 54.0808 46.1294 55.1478C46.1294 56.2149 46.5063 57.1227 47.2549 57.8713C48.0034 58.6198 48.9112 58.9967 49.9783 58.9967H53.8219V56.7723H51.7992L50.3817 53.534H57.0603V62.2351Z" fill="#DC0000"/>
<path d="M73.0634 62.2376H64.7657L63.3483 58.9992H67.9988L65.4718 53.2976L61.5167 62.2376H57.8855V58.9992H59.3242L64.1605 48.0684H66.7937L73.0634 62.2376Z" fill="#DC0000"/>
<path d="M89.0463 62.2376H85.808V55.8192L82.4687 62.2323H80.446L77.1068 55.8192V62.2323H73.8684V48.0684H77.1121L81.46 56.7695L85.808 48.0684H89.0517V62.2376H89.0463Z" fill="#DC0000"/>
<path d="M102 62.2376H89.8591V48.0684H102V51.3067H93.0975V53.5311H99.9777V56.7695H93.0975V58.9939H102V62.2376Z" fill="#DC0000"/>
</svg>
