<svg width="38" height="38" viewBox="0 0 38 38" fill="none" xmlns="http://www.w3.org/2000/svg">
<path opacity="0.2" d="M2 9.5599C2 5.3932 5.48041 2 9.75634 2H18.2611C22.5283 2 26 5.383 26 9.5429V28.4401C26 32.6085 22.5196 36 18.2419 36H9.74064C5.47169 36 2 32.617 2 28.4571V26.8591V9.5599Z" fill="#DC0000"/>
<path d="M36.6316 18.5368L31.8891 13.3971C31.399 12.867 30.6102 12.867 30.1217 13.4006C29.6347 13.9342 29.6364 14.7947 30.1249 15.3247L32.7234 18.1393H30.232H16.2497C15.5599 18.1393 15 18.7489 15 19.4998C15 20.2525 15.5599 20.8602 16.2497 20.8602H32.7234L30.1249 23.6748C29.6364 24.2049 29.6347 25.0653 30.1217 25.5989C30.3667 25.8657 30.6865 26 31.0078 26C31.3259 26 31.6457 25.8657 31.8891 25.6025L36.6316 20.4645C36.8669 20.2083 37 19.862 37 19.4998C37 19.1393 36.8669 18.793 36.6316 18.5368Z" fill="#DC0000"/>
</svg>
