<svg width="12" height="12" viewBox="0 0 12 12" fill="none" xmlns="http://www.w3.org/2000/svg">
<path d="M11.2357 2.37574C11.0537 2.37574 10.9057 2.22997 10.9057 2.05082C10.9057 1.74284 10.656 1.49316 10.348 1.49316C10.04 1.49316 9.79036 1.74284 9.79036 2.05082C9.79036 2.22997 9.64232 2.37574 9.4603 2.37574C9.15233 2.37574 8.90265 2.62542 8.90265 2.93339V2.93559C8.90265 3.24356 9.15233 3.49324 9.4603 3.49324C9.64232 3.49324 9.79036 3.63901 9.79036 3.81816C9.79036 4.12613 10.04 4.37581 10.348 4.37581C10.656 4.37581 10.9057 4.12613 10.9057 3.81816C10.9057 3.63901 11.0537 3.49324 11.2357 3.49324C11.5436 3.49324 11.7933 3.2414 11.7933 2.93339C11.7933 2.62538 11.5436 2.37574 11.2357 2.37574Z" fill="#A9B0BD"/>
<path d="M11.7856 6.99854C11.6044 6.85701 11.355 6.84124 11.1574 6.95868C9.39041 8.009 7.13846 7.73044 5.68098 6.28136C4.22555 4.83426 3.9455 2.59878 5.00005 0.845041C5.11861 0.647893 5.10392 0.398139 4.9631 0.216271C4.8222 0.0343275 4.58401 -0.0423678 4.36359 0.0230632C3.39814 0.309436 2.5091 0.837346 1.79259 1.54976C0.636615 2.69908 0 4.22738 0 5.85316C0 7.47893 0.636615 9.0072 1.79255 10.1564C2.98474 11.3418 4.55025 11.9344 6.11625 11.9342C6.36723 11.9342 6.61825 11.9188 6.8677 11.8883C7.21694 11.794 7.57124 11.7186 7.92873 11.6624C8.84822 11.3803 9.71362 10.8786 10.4399 10.1564C11.1569 9.44361 11.6882 8.55903 11.9764 7.59827C12.0425 7.37815 11.9667 7.14003 11.7856 6.99854Z" fill="#A9B0BD"/>
</svg>
