<svg width="12" height="16" viewBox="0 0 12 16" fill="none" xmlns="http://www.w3.org/2000/svg">
<path d="M6.33376 2.07298C7.12646 2.12031 7.90183 2.32899 8.61186 2.68567C9.29922 3.02835 9.91191 3.50237 10.4159 4.08173C10.9166 4.65842 11.2973 5.31712 11.5593 6.05715C11.82 6.79652 11.9247 7.57588 11.8687 8.39192C11.8467 8.81594 11.7787 9.22662 11.6647 9.62397C11.5533 10.016 11.4026 10.3967 11.2153 10.7594C10.9226 11.3254 10.5959 11.8607 10.2353 12.3674C9.87658 12.8735 9.48523 13.3441 9.06054 13.7795C8.63519 14.2148 8.18517 14.6155 7.70582 14.9809C7.22646 15.3436 6.72511 15.6729 6.20309 15.9669L6.17842 15.9843C6.15642 15.9963 6.13108 16.0016 6.10575 15.9996C6.06375 15.9896 6.02708 15.9676 5.99974 15.9349C5.97241 15.9016 5.95774 15.8609 5.95841 15.8196C5.95841 15.8002 5.96107 15.7802 5.96641 15.7629C5.97174 15.7476 5.98041 15.7336 5.99108 15.7216C6.17575 15.4596 6.32842 15.1842 6.44843 14.8982C6.5691 14.6089 6.65044 14.3082 6.69377 13.9922C6.69377 13.9708 6.68377 13.9495 6.66844 13.9355C6.65444 13.9188 6.6331 13.9102 6.61177 13.9102C6.43576 13.9315 6.25975 13.9455 6.08175 13.9515C5.90441 13.9575 5.72706 13.9495 5.55106 13.9268C4.75836 13.8795 3.98232 13.6702 3.27229 13.3148C2.58493 12.9715 1.9729 12.4974 1.46888 11.9181C0.96619 11.3381 0.578173 10.668 0.325495 9.94265C0.0628167 9.19396 -0.0425212 8.39992 0.0154814 7.60789C0.0374823 7.18387 0.105485 6.77318 0.21949 6.37583C0.333495 5.97715 0.483502 5.6058 0.66951 5.25578C0.962189 4.67976 1.2902 4.1384 1.64889 3.63171C2.00823 3.12702 2.39892 2.65567 2.82294 2.21965C3.24896 1.78496 3.69898 1.38495 4.17833 1.0196C4.65835 0.655581 5.15837 0.3269 5.6804 0.0335535L5.70573 0.0168861C5.72773 0.00355218 5.7524 -0.00111469 5.7784 0.000218703C5.82174 0.0108858 5.85774 0.0342202 5.88374 0.0655549C5.91241 0.0995564 5.92507 0.136225 5.92507 0.18156C5.92574 0.199561 5.92307 0.219562 5.91707 0.237562C5.91241 0.252896 5.90374 0.26623 5.89307 0.278231C5.71106 0.535576 5.55639 0.812254 5.43505 1.10293C5.31438 1.39161 5.23504 1.69296 5.19104 2.00831C5.19104 2.03031 5.19904 2.05031 5.21504 2.06564C5.22971 2.08164 5.25104 2.09031 5.27171 2.09031C5.44639 2.06831 5.62306 2.05498 5.80173 2.04964C5.98308 2.04364 6.15908 2.05164 6.33376 2.07298ZM5.79573 10.318C6.41043 10.3707 7.02112 10.164 7.47647 9.74798C7.9565 9.32196 8.21584 8.78927 8.26051 8.14791C8.31251 7.52922 8.10583 6.91719 7.68982 6.45784C7.28913 5.98582 6.70844 5.7038 6.08975 5.68313C5.47172 5.63113 4.85969 5.83781 4.40034 6.25316C3.92765 6.65451 3.64564 7.2352 3.62431 7.85323C3.5723 8.47059 3.77631 9.08128 4.18833 9.5433C4.60702 10.0267 5.14304 10.2867 5.79573 10.318Z" fill="#BCB7B7"/>
</svg>
