<svg width="14" height="19" viewBox="0 0 14 19" fill="none" xmlns="http://www.w3.org/2000/svg">
<g opacity="0.5">
<path d="M3.81716 3.00059C3.81716 2.67444 3.9492 2.38091 4.18028 2.1526C4.41135 1.92429 4.70844 1.79383 5.03855 1.79383H9.29689C9.627 1.79383 9.92409 1.92429 10.1552 2.1526C10.3862 2.38091 10.5183 2.67444 10.5183 3.00059V6.00662C10.5183 6.50798 10.9247 6.91441 11.4261 6.91441C11.9274 6.91441 12.3339 6.50798 12.3339 6.00662V3.00059C12.3339 2.18521 12.0038 1.40245 11.4426 0.880609C10.8814 0.326152 10.1222 0 9.29689 0H5.03855C4.21329 0 3.42104 0.326152 2.89287 0.880609C2.33169 1.43507 2.00159 2.18521 2.00159 3.00059V6.00662C2.00159 6.50798 2.40802 6.91441 2.90937 6.91441C3.41073 6.91441 3.81716 6.50798 3.81716 6.00662V3.00059Z" fill="black"/>
<path d="M13.5013 8.50286C13.1712 8.18857 12.709 8 12.2139 8H1.81557C1.32042 8 0.858272 8.18857 0.528167 8.50286C0.198063 8.81715 0 9.25715 0 9.72858V12.3372C0 14.1914 0.792251 15.8572 2.04665 17.0515C3.30104 18.2457 5.08361 19 6.99821 19C8.94583 19 10.6954 18.2457 11.9498 17.0515C13.2042 15.8572 13.9964 14.16 13.9964 12.3372V9.72858C14.0294 9.25715 13.8314 8.81715 13.5013 8.50286ZM12.2139 12.3372C12.2139 13.6886 11.6197 14.9457 10.6954 15.8257C9.73808 16.7057 8.45067 17.2715 7.03122 17.2715C5.61177 17.2715 4.29136 16.7057 3.36706 15.8257C2.44277 14.9143 1.84858 13.6886 1.84858 12.3372V9.72858H12.2139V12.3372Z" fill="black"/>
<ellipse cx="7" cy="13.002" rx="1" ry="1" fill="black"/>
</g>
</svg>
