<svg width="15" height="15" viewBox="0 0 15 15" fill="none" xmlns="http://www.w3.org/2000/svg">
<path fill-rule="evenodd" clip-rule="evenodd" d="M1.66443 6.66528C1.66443 3.90781 3.9069 1.66534 6.66436 1.66534C9.42182 1.66534 11.6643 3.90781 11.6643 6.66528C11.6643 9.42274 9.42182 11.6652 6.66436 11.6652C3.9069 11.6652 1.66443 9.42274 1.66443 6.66528ZM14.7556 13.5773L11.9265 10.7473C12.804 9.61903 13.3331 8.20489 13.3331 6.66657C13.3331 2.99079 10.3424 0 6.66657 0C2.99079 0 0 2.99079 0 6.66657C0 10.3424 2.99079 13.3331 6.66657 13.3331C8.20489 13.3331 9.61903 12.804 10.7474 11.9265L13.5773 14.7556C13.7398 14.9181 13.9531 14.9998 14.1665 14.9998C14.3798 14.9998 14.5931 14.9181 14.7556 14.7556C15.0815 14.4298 15.0815 13.9031 14.7556 13.5773Z" fill="black"/>
</svg>
