<svg width="38" height="38" viewBox="0 0 38 38" fill="none" xmlns="http://www.w3.org/2000/svg">
<path opacity="0.4" d="M24.899 4H30.1002C32.2542 4 33.9996 5.7454 33.9996 7.89942V13.1006C33.9996 15.2546 32.2542 17 30.1002 17H24.899C22.745 17 20.9996 15.2546 20.9996 13.1006V7.89942C20.9996 5.7454 22.745 4 24.899 4Z" fill="#8A1FF9"/>
<path fill-rule="evenodd" clip-rule="evenodd" d="M7.89942 4H13.1006C15.2546 4 17 5.7454 17 7.89942V13.1006C17 15.2546 15.2546 17 13.1006 17H7.89942C5.7454 17 4 15.2546 4 13.1006V7.89942C4 5.7454 5.7454 4 7.89942 4ZM24.8994 21H30.1006C32.2546 21 34 22.7454 34 24.8994V30.1006C34 32.2531 32.2546 34 30.1006 34H24.8994C22.7454 34 21 32.2531 21 30.1006V24.8994C21 22.7454 22.7454 21 24.8994 21ZM13.1006 21H7.89942C5.7454 21 4 22.7454 4 24.8994V30.1006C4 32.2531 5.7454 34 7.89942 34H13.1006C15.2546 34 17 32.2531 17 30.1006V24.8994C17 22.7454 15.2546 21 13.1006 21Z" fill="#8A1FF9"/>
</svg>
