<svg width="38" height="38" viewBox="0 0 38 38" fill="none" xmlns="http://www.w3.org/2000/svg">
<path opacity="0.4" d="M21.6973 8.26046V8.60506C20.7735 8.58693 19.8497 8.58693 18.926 8.58693V8.2786C18.926 7.02714 17.8729 5.06024 16.6165 5.06024H14.7875C12.6997 5.06024 11 3.39163 11 1.36028C11 0.61666 11.6282 0 12.3857 0C13.1616 0 13.7713 0.61666 13.7713 1.36028C13.7713 1.90439 14.2332 2.33968 14.7875 2.33968H16.6165C19.4063 2.35782 21.6788 5.5399 21.6973 8.26046Z" fill="#00AE31"/>
<path fill-rule="evenodd" clip-rule="evenodd" d="M25.0116 8.05013C25.6103 8.05826 26.2104 8.06641 26.8126 8.07251C33.2826 8.07251 38 12.6405 38 18.9486V27.0514C38 33.3595 33.2826 37.9275 26.8126 37.9275C24.2208 37.9819 21.629 38 19.0186 38C16.4082 38 13.7792 37.9819 11.1874 37.9275C4.71737 37.9275 0 33.3595 0 27.0514V18.9486C0 12.6405 4.71737 8.07251 11.2061 8.07251C13.6487 8.03625 16.1472 8 18.683 8C19.6153 8 20.5476 8 21.4799 8.01813C22.6553 8.01813 23.8307 8.03409 25.0116 8.05013ZM17.2498 24.8121H15.5038V26.6791C15.5038 27.4012 14.9385 28 14.2567 28C13.5584 28 13.0096 27.4012 13.0096 26.6791V24.8121H11.2471C10.5653 24.8121 10 24.2309 10 23.4912C10 22.7691 10.5653 22.1703 11.2471 22.1703H13.0096V20.3209C13.0096 19.5988 13.5584 19 14.2567 19C14.9385 19 15.5038 19.5988 15.5038 20.3209V22.1703H17.2498C17.9315 22.1703 18.4968 22.7691 18.4968 23.4912C18.4968 24.2309 17.9315 24.8121 17.2498 24.8121ZM24.3175 21.8388H24.4838C25.1656 21.8388 25.7309 21.2575 25.7309 20.5178C25.7309 19.7957 25.1656 19.1969 24.4838 19.1969H24.3175C23.6192 19.1969 23.0704 19.7957 23.0704 20.5178C23.0704 21.2575 23.6192 21.8388 24.3175 21.8388ZM27.1601 27.8962H27.3264C28.0082 27.8962 28.5735 27.315 28.5735 26.5752C28.5735 25.8531 28.0082 25.2543 27.3264 25.2543H27.1601C26.4618 25.2543 25.913 25.8531 25.913 26.5752C25.913 27.315 26.4618 27.8962 27.1601 27.8962Z" fill="#00AE31"/>
</svg>
