<svg width="48" height="48" viewBox="0 0 48 48" fill="none" xmlns="http://www.w3.org/2000/svg">
<path fill-rule="evenodd" clip-rule="evenodd" d="M13 1C11.8954 1 11 1.89543 11 3V7H7C5.89543 7 5 7.89543 5 9C5 10.1046 5.89543 11 7 11H11V15C11 16.1046 11.8954 17 13 17C14.1046 17 15 16.1046 15 15V7.0001H17.0118V11H41C42.1046 11 43 10.1046 43 9C43 7.89543 42.1046 7 41 7H15V3C15 1.89543 14.1046 1 13 1Z" fill="black"/>
<path fill-rule="evenodd" clip-rule="evenodd" d="M23 15C21.8954 15 21 15.8954 21 17V21H7C5.89543 21 5 21.8954 5 23C5 24.1046 5.89543 25 7 25H21V29C21 30.1046 21.8954 31 23 31C24.1046 31 25 30.1046 25 29V17C25 15.8954 24.1046 15 23 15ZM41 25H27.0106V21H41C42.1046 21 43 21.8954 43 23C43 24.1046 42.1046 25 41 25Z" fill="black"/>
<path fill-rule="evenodd" clip-rule="evenodd" d="M35 31C33.8954 31 33 31.8954 33 33V37H7C5.89543 37 5 37.8954 5 39C5 40.1046 5.89543 41 7 41H32.997V37.0001H33V45C33 46.1046 33.8954 47 35 47C36.1046 47 37 46.1046 37 45V37.0001H38.997V41H41C42.1046 41 43 40.1046 43 39C43 37.8954 42.1046 37 41 37H37V33C37 31.8954 36.1046 31 35 31Z" fill="black"/>
</svg>
