<svg width="75" height="11" viewBox="0 0 75 11" fill="none" xmlns="http://www.w3.org/2000/svg">
<path d="M8.91554 10.4109H0V0.0107422H2.37696V8.03395H8.91165L8.91554 10.4109Z" fill="black"/>
<path d="M20.6499 10.408H14.5594L13.519 8.03102H16.9325L15.0777 3.84602L12.1746 10.408H9.50934V8.03102H10.5653L14.1152 0.0078125H16.0479L20.6499 10.408Z" fill="black"/>
<path d="M30.9022 10.408H28.5253L23.6233 4.50845V10.408H21.2463V0.0078125H23.6272L28.5253 5.89955V0.0078125H30.9022V10.408Z" fill="black"/>
<path d="M41.8883 10.4041H36.6901C35.2523 10.4041 34.0287 9.8975 33.0117 8.88047C31.9947 7.86734 31.4881 6.6399 31.4881 5.20203C31.4881 3.76806 31.9947 2.54062 33.0117 1.52359C34.0248 0.510462 35.2523 0 36.6901 0H41.8883V2.37696H36.6901C35.9069 2.37696 35.2406 2.65362 34.6911 3.20305C34.1417 3.75248 33.8651 4.4188 33.8651 5.20203C33.8651 5.98526 34.1417 6.65159 34.6911 7.20101C35.2406 7.75044 35.9069 8.02711 36.6901 8.02711H39.5113V6.39441H38.0267L36.9863 4.01745H41.8883V10.4041Z" fill="#DC0000"/>
<path d="M53.6296 10.408H47.5391L46.4987 8.03102H49.9122L48.0574 3.84602L45.1544 10.408H42.4891V8.03102H43.5451L47.0949 0.0078125H49.0276L53.6296 10.408Z" fill="#DC0000"/>
<path d="M65.363 10.408H62.986V5.69693L60.535 10.4041H59.0504L56.5994 5.69693V10.4041H54.2225V0.0078125H56.6033L59.7947 6.39443L62.986 0.0078125H65.3669V10.408H65.363Z" fill="#DC0000"/>
<path d="M74.8675 10.408H65.9559V0.0078125H74.8675V2.38477H68.3328V4.01747H73.3829V6.39443H68.3328V8.02712H74.8675V10.408Z" fill="#DC0000"/>
</svg>
