<svg width="27" height="39" viewBox="0 0 27 39" fill="none" xmlns="http://www.w3.org/2000/svg">
<path d="M13.5002 27.5625C13.2271 28.3955 12.2429 29.1351 10.753 29.5988C6.96913 30.7762 4.62815 32.4559 4.1748 34.2812H22.8256C22.372 32.4559 20.0312 30.7762 16.2474 29.5988C14.7574 29.1351 13.7733 28.3955 13.5002 27.5625Z" fill="#DC0000"/>
<path d="M5.44604 8.75C6.57395 10.8983 8.37962 12.8216 10.753 14.3392C11.4811 14.8021 12.1025 15.4144 12.5761 16.1356C13.0497 16.8568 13.3646 16.916 13.5001 17.768C13.6356 16.916 13.9506 16.8568 14.4242 16.1356C14.8978 15.4144 15.5192 14.8021 16.2473 14.3392C18.6207 12.8216 20.4263 10.8983 21.5542 8.75H5.44604Z" fill="#DC0000"/>
<path d="M17.6949 16.6031C22.5036 13.5287 25.5938 8.74656 25.5938 3.375C25.9501 3.375 26.2919 3.23343 26.5439 2.98142C26.7959 2.72942 26.9375 2.38763 26.9375 2.03125V0.015625H0.0625V1.94727C0.0626589 2.31116 0.201884 2.66124 0.451683 2.92585C0.701482 3.19047 1.04297 3.34961 1.40625 3.37072V3.375C1.40625 8.74656 4.49637 13.5287 9.30506 16.6031C11.418 17.9541 11.418 21.0459 9.30506 22.3969C4.49637 25.4713 1.40625 30.2534 1.40625 35.625V35.6293C1.04297 35.6504 0.701482 35.8095 0.451683 36.0741C0.201884 36.3388 0.0626589 36.6888 0.0625 37.0527V38.9844H26.9375V36.9688C26.9375 36.6124 26.7959 36.2706 26.5439 36.0186C26.2919 35.7666 25.9501 35.625 25.5938 35.625C25.5938 30.2534 22.5036 25.4713 17.6949 22.3969C15.582 21.0459 15.582 17.9541 17.6949 16.6031ZM14.7665 19.5C14.7643 20.303 14.9653 21.0935 15.3507 21.7979C15.7362 22.5024 16.2936 23.0979 16.9711 23.529C21.5969 26.4865 24.25 30.8954 24.25 35.625H2.75C2.75 30.8954 5.40307 26.4865 10.0289 23.529C10.7049 23.0963 11.2611 22.5004 11.6463 21.7964C12.0316 21.0923 12.2335 20.3026 12.2335 19.5C12.2335 18.6974 12.0316 17.9077 11.6463 17.2036C11.2611 16.4996 10.7049 15.9037 10.0289 15.471C5.40307 12.5135 2.75 8.10458 2.75 3.375H24.25C24.25 8.10458 21.5969 12.5135 16.9711 15.471C16.2936 15.9021 15.7362 16.4976 15.3507 17.2021C14.9653 17.9065 14.7643 18.697 14.7665 19.5Z" fill="#DC0000"/>
</svg>
