<svg width="14" height="14" viewBox="0 0 14 14" fill="none" xmlns="http://www.w3.org/2000/svg">
<circle cx="7" cy="7" r="7" fill="#BCB7B7"/>
<path d="M9.44458 2.5791C7.95369 2.5791 6.73747 3.77929 6.7259 5.25906L5.0329 7.67502C4.56057 7.63229 4.15323 7.72978 3.79308 7.94836L1.47461 7.01483V9.56435L2.84575 10.1133C3.04385 11.021 3.85986 11.7052 4.82544 11.7052C5.87517 11.7052 6.74504 10.9025 6.84075 9.88042L9.44726 7.98442C10.9426 7.98442 12.1588 6.77755 12.1588 5.28087L12.1584 5.28043C12.1584 3.79087 10.9422 2.5791 9.44458 2.5791ZM3.50862 10.379C3.75168 10.4716 3.99742 10.5736 4.24093 10.6688C4.84948 10.9181 5.54084 10.6212 5.78391 10.0153C6.02964 9.40943 5.73138 8.72564 5.12371 8.48302L4.50358 8.23372C5.42688 8.02894 6.31589 8.72074 6.31634 9.68277C6.31589 10.5072 4.23381 11.7341 3.50862 10.379ZM9.44726 7.0914C8.44071 7.0914 7.62293 6.28341 7.62293 5.28087C7.62293 4.28279 8.43849 3.47034 9.44726 3.47034C10.4467 3.47034 11.2645 4.28279 11.2645 5.28087C11.2645 6.28608 10.4462 7.09407 9.44726 7.0914Z" fill="white"/>
<path d="M9.45048 3.82812C8.64694 3.82812 7.99609 4.47675 7.99609 5.27717C7.99609 6.0776 8.64471 6.72622 9.45048 6.72622C10.2491 6.72622 10.9049 6.07982 10.9049 5.27717C10.9049 4.47452 10.2491 3.82812 9.45048 3.82812Z" fill="white"/>
</svg>
