<svg width="48" height="48" viewBox="0 0 48 48" fill="none" xmlns="http://www.w3.org/2000/svg">
<g clip-path="url(#clip0)">
<path fill-rule="evenodd" clip-rule="evenodd" d="M19.2164 37.1887C18.4649 36.4281 17.4401 36 16.3709 36H13C9.68629 36 7 33.3137 7 30V10C7 6.68629 9.68629 4 13 4H35C38.3137 4 41 6.68629 41 10V30C41 33.3137 38.3137 36 35 36H33.5705C32.4541 36 31.3885 36.4666 30.6313 37.2869L25.1645 43.2092L19.2164 37.1887ZM13 0C7.47715 0 3 4.47715 3 10V30C3 35.5228 7.47715 40 13 40H16.3709L23.7909 47.5102C24.5926 48.3217 25.9096 48.2993 26.6833 47.4612L33.5705 40H35C40.5228 40 45 35.5228 45 30V10C45 4.47715 40.5228 0 35 0H13ZM15 16C15 14.8954 15.8954 14 17 14H31C32.1046 14 33 14.8954 33 16C33 17.1046 32.1046 18 31 18H17C15.8954 18 15 17.1046 15 16ZM15 23.9961C15 22.8915 15.8954 21.9961 17 21.9961H31C32.1046 21.9961 33 22.8915 33 23.9961C33 25.1007 32.1046 25.9961 31 25.9961H17C15.8954 25.9961 15 25.1007 15 23.9961Z" fill="black"/>
</g>
<defs>
<clipPath id="clip0">
<rect width="48" height="48" fill="white"/>
</clipPath>
</defs>
</svg>
