<svg width="48" height="48" viewBox="0 0 48 48" fill="none" xmlns="http://www.w3.org/2000/svg">
<path fill-rule="evenodd" clip-rule="evenodd" d="M36.9063 35.1797C37.7347 35.1797 38.4063 34.5081 38.4063 33.6797C38.4063 32.8513 37.7347 32.1797 36.9063 32.1797L11.3034 32.1797L16.9225 26.5865C17.5096 26.0021 17.5118 25.0524 16.9274 24.4652C16.3429 23.8781 15.3932 23.8759 14.8061 24.4603L6.67521 32.5537C6.36314 32.8286 6.16625 33.2311 6.16625 33.6797C6.16625 34.1336 6.36788 34.5404 6.68647 34.8155L14.8061 42.8977C15.3932 43.4821 16.3429 43.4799 16.9274 42.8928C17.5118 42.3056 17.5096 41.3559 16.9225 40.7714L11.3048 35.1797L36.9063 35.1797Z" fill="black"/>
<path fill-rule="evenodd" clip-rule="evenodd" d="M43.8337 13.7376C43.8352 13.765 43.8359 13.7925 43.8359 13.8203C43.8359 14.2496 43.6556 14.6368 43.3665 14.9103L35.2008 23.0383C34.6137 23.6227 33.6639 23.6205 33.0795 23.0334C32.4951 22.4462 32.4973 21.4965 33.0844 20.9121L38.7021 15.3203L11.0959 15.3203C10.2675 15.3203 9.59594 14.6487 9.59594 13.8203C9.59594 12.9919 10.2675 12.3203 11.0959 12.3203L38.7034 12.3203L33.0844 6.72717C32.4973 6.14274 32.4951 5.19299 33.0795 4.60586C33.6639 4.01872 34.6137 4.01652 35.2008 4.60095L43.3941 12.7565C43.5073 12.8691 43.6006 12.9979 43.6718 13.1374C43.7649 13.3191 43.822 13.5223 43.8337 13.7376Z" fill="black"/>
</svg>
