<svg width="25" height="26" viewBox="0 0 25 26" fill="none" xmlns="http://www.w3.org/2000/svg">
<path d="M12.7243 6.80255C13.6686 6.75311 14.5635 6.9311 15.3743 7.27224C17.525 8.17699 19.0502 10.2856 19.0873 12.7552L16.8427 12.7552C16.7191 12.7552 16.6523 12.9109 16.729 13.0172L20.128 17.6423C20.1848 17.719 20.2986 17.719 20.3554 17.6423L23.7569 13.0147C23.8335 12.9084 23.7668 12.7527 23.6432 12.7527L21.3937 12.7527C21.3516 8.9977 18.8203 5.83352 15.3768 4.82741C14.341 4.52335 13.2212 4.41706 12.0618 4.54807C10.0916 4.77303 8.32411 5.70498 7.01147 7.072L8.40816 8.97298C9.46371 7.71967 11.0062 6.88907 12.7243 6.80255Z" fill="black"/>
<path d="M4.2681 13.2763C4.31013 17.0313 6.84147 20.1954 10.285 21.2015C11.3208 21.5056 12.4406 21.6119 13.6 21.4809C15.5702 21.2559 17.3377 20.324 18.6503 18.957L17.2536 17.056C16.2005 18.3068 14.6555 19.1399 12.9375 19.2264C11.9932 19.2758 11.0983 19.0979 10.2875 18.7567C8.13681 17.852 6.61158 15.7433 6.5745 13.2738L8.81909 13.2738C8.94269 13.2738 9.00943 13.1181 8.9328 13.0118L5.53378 8.38661C5.47692 8.30998 5.36321 8.30998 5.30635 8.38661L1.90486 13.0142C1.82822 13.1205 1.89744 13.2738 2.01857 13.2763H4.2681Z" fill="black"/>
</svg>
